<?xml version="1.0" encoding="UTF-8" standalone="no"?>
<svg
   version="1.0"
   width="1244.000000pt"
   height="1196.000000pt"
   viewBox="0 0 1244.000000 1196.000000"
   preserveAspectRatio="xMidYMid meet"
   id="svg10"
   sodipodi:docname="hedgehog-noborder.svg"
   inkscape:version="1.1.2 (0a00cf5339, 2022-02-04)"
   xmlns:inkscape="http://www.inkscape.org/namespaces/inkscape"
   xmlns:sodipodi="http://sodipodi.sourceforge.net/DTD/sodipodi-0.dtd"
   xmlns="http://www.w3.org/2000/svg"
   xmlns:svg="http://www.w3.org/2000/svg">
  <defs
     id="defs14">
    <clipPath
       clipPathUnits="userSpaceOnUse"
       id="clipPath1036">
      <rect
         style="fill:none;stroke:#000000;stroke-width:215.527"
         id="rect1038"
         width="9201.5117"
         height="9713.0264"
         x="1619.7336"
         y="-10849.948"
         transform="scale(1,-1)" />
    </clipPath>
  </defs>
  <sodipodi:namedview
     id="namedview12"
     pagecolor="#ffffff"
     bordercolor="#666666"
     borderopacity="1.0"
     inkscape:pageshadow="2"
     inkscape:pageopacity="0.0"
     inkscape:pagecheckerboard="0"
     inkscape:document-units="pt"
     showgrid="false"
     inkscape:zoom="0.47972408"
     inkscape:cx="828.60131"
     inkscape:cy="619.10588"
     inkscape:window-width="1920"
     inkscape:window-height="928"
     inkscape:window-x="0"
     inkscape:window-y="0"
     inkscape:window-maximized="1"
     inkscape:current-layer="svg10" />
  <g
     transform="matrix(0.12315168,0,0,-0.12315168,-139.5278,1338.7582)"
     fill="#4cfce1"
     stroke="none"
     id="g8"
     clip-path="url(#clipPath1036)">
    <path
       d="M 0,5980 V 0 h 6220 6220 v 5980 5980 H 6220 0 Z m 12420,0 V 20 H 6220 20 v 5960 5960 h 6200 6200 z"
       id="path2"
       style="fill:none" />
    <path
       d="m 6635,10382 c 28,-121 37,-217 39,-392 2,-177 -17,-577 -29,-588 -2,-2 -140,41 -307,96 -422,141 -584,185 -825,226 -111,19 -263,32 -263,22 0,-4 29,-62 64,-129 175,-336 248,-479 245,-482 -2,-1 -60,-6 -129,-9 -69,-4 -136,-9 -150,-11 -14,-2 -79,-7 -145,-10 -66,-4 -131,-8 -145,-10 -14,-2 -72,-6 -130,-10 -403,-24 -789,-100 -950,-186 -89,-48 -156,-100 -139,-109 8,-4 93,-31 189,-59 216,-62 279,-84 499,-168 137,-53 176,-72 184,-91 16,-35 1,-51 -83,-84 -124,-49 -700,-287 -780,-323 -162,-73 -447,-242 -494,-294 l -19,-21 h 111 c 89,0 144,-7 274,-34 249,-53 629,-145 663,-160 l 30,-13 -60,-38 c -33,-20 -76,-48 -95,-60 -19,-13 -111,-71 -205,-130 -434,-275 -737,-500 -870,-647 -42,-47 -148,-198 -142,-204 4,-4 122,-13 252,-19 72,-4 146,-8 165,-10 19,-2 103,-7 185,-11 83,-4 157,-8 165,-10 8,-1 31,-3 50,-3 l 35,-1 -23,-18 c -12,-9 -52,-33 -90,-52 -371,-190 -618,-329 -722,-406 -193,-141 -376,-372 -331,-417 13,-13 178,-12 303,2 108,12 315,13 383,1 72,-12 305,-80 305,-89 0,-4 -28,-13 -62,-20 -89,-18 -194,-64 -258,-113 -95,-72 -438,-385 -610,-558 -141,-140 -358,-387 -348,-395 2,-1 55,-6 118,-9 63,-4 151,-12 195,-17 97,-12 368,-58 373,-64 2,-2 -53,-74 -123,-160 -149,-184 -230,-305 -291,-432 -24,-50 -44,-94 -44,-98 0,-3 12,2 28,13 92,65 213,102 340,102 65,0 76,-3 98,-25 30,-30 26,-55 -16,-100 -76,-83 -137,-209 -169,-347 -21,-89 -38,-238 -27,-238 4,0 104,39 222,86 119,47 217,84 219,82 1,-1 -21,-133 -50,-293 -29,-159 -51,-294 -48,-298 3,-5 26,11 52,36 62,61 203,147 240,147 26,0 59,-20 62,-38 1,-4 3,-52 4,-107 7,-308 33,-515 71,-576 4,-7 24,6 48,29 59,56 101,85 183,126 73,37 254,109 259,103 4,-4 23,-159 30,-247 5,-68 -6,-204 -21,-242 -5,-13 18,-16 177,-20 163,-5 201,-10 348,-42 506,-113 1023,-189 1515,-225 124,-9 576,-6 655,4 532,70 779,124 942,206 202,102 278,205 249,339 -28,131 -105,217 -259,292 l -102,49 64,82 c 313,403 490,933 499,1498 l 2,139 53,11 c 360,74 707,331 861,636 59,119 83,223 85,368 1,178 -29,269 -128,373 -132,141 -241,122 -477,-81 -144,-124 -224,-171 -354,-212 l -77,-23 5,306 c 4,266 7,319 25,394 11,47 30,104 41,126 25,50 209,217 421,382 339,266 378,298 464,380 235,226 388,486 460,782 13,57 27,135 31,173 3,39 8,91 11,117 2,26 15,69 28,95 39,78 48,121 44,191 -11,182 -144,315 -313,316 -120,1 -180,-36 -283,-173 -34,-44 -139,-76 -252,-75 -96,1 -57,-12 -522,177 -169,69 -330,130 -358,137 -27,7 -50,15 -50,18 1,4 27,25 58,47 92,64 332,310 391,400 125,191 189,397 207,666 6,92 5,102 -8,89 -8,-8 -80,-85 -158,-170 -360,-389 -393,-422 -401,-408 -4,7 -10,45 -13,83 -38,405 -83,660 -144,814 l -26,65 -49,-55 c -74,-82 -146,-196 -244,-386 l -90,-173 -24,28 c -26,27 -86,104 -354,447 -226,289 -424,515 -452,515 -5,0 0,-42 12,-98 z M 7810,8256 c 177,-46 402,-124 570,-198 325,-145 365,-158 480,-158 36,0 108,9 160,20 89,18 95,18 104,2 5,-9 32,-40 61,-69 39,-37 68,-56 109,-69 l 57,-18 -7,-45 c -9,-69 -50,-231 -74,-292 -95,-242 -283,-450 -720,-795 -257,-202 -452,-363 -484,-398 -132,-143 -161,-309 -161,-929 0,-342 2,-399 15,-408 22,-15 258,-4 355,16 169,35 274,90 453,233 127,102 172,136 176,131 15,-17 37,-120 37,-172 0,-230 -161,-453 -446,-616 -136,-78 -285,-121 -470,-137 -44,-3 -81,-7 -82,-8 -1,-1 -5,-116 -8,-256 -3,-140 -7,-266 -9,-280 -2,-14 -7,-59 -11,-100 -19,-214 -83,-469 -163,-647 -103,-233 -236,-417 -462,-644 -85,-85 -184,-181 -220,-211 l -65,-56 210,1 c 173,1 222,-2 275,-17 86,-23 181,-71 216,-108 28,-28 28,-30 10,-43 -30,-23 -170,-73 -290,-105 -160,-43 -294,-67 -537,-96 -266,-33 -634,-41 -859,-19 -250,25 -570,72 -570,85 0,4 26,13 58,19 31,7 100,27 152,43 509,160 868,437 1073,828 183,349 316,889 358,1455 23,315 15,1114 -17,1505 -13,166 -81,947 -103,1175 -14,154 -13,412 3,525 52,370 254,713 507,863 60,36 68,38 124,33 33,-3 121,-21 195,-40 z"
       id="path4" />
    <path
       d="m 7901,7889 c -85,-16 -140,-84 -156,-191 -9,-57 23,-164 58,-195 49,-45 126,-67 181,-52 83,23 156,128 156,225 0,98 -80,204 -165,217 -16,2 -50,0 -74,-4 z"
       id="path6" />
  </g>
</svg>
